<?xml version="1.0" encoding="utf-8"?>
<!-- Generator: Adobe Illustrator 25.2.1, SVG Export Plug-In . SVG Version: 6.00 Build 0)  -->
<svg version="1.1" id="Layer_1" xmlns="http://www.w3.org/2000/svg" xmlns:xlink="http://www.w3.org/1999/xlink" x="0px" y="0px"
	 viewBox="0 0 873 592" style="enable-background:new 0 0 873 592;" xml:space="preserve">
<g>
	<path d="M209.7,507.1L417.1,92.3c8-16,30.8-16,38.8,0l207.4,414.8c7.2,14.4-3.3,31.4-19.4,31.4h0c-8.2,0-15.7-4.6-19.4-12
		L455.9,189.3c-8-16-30.8-16-38.8,0L248.5,526.5c-3.7,7.3-11.2,12-19.4,12h0C213,538.5,202.5,521.5,209.7,507.1z"/>
	<path d="M611.1,92.3l-48.5,97c-3.1,6.1-3.1,13.3,0,19.4l0,0c8,16,30.8,16,38.8,0l9.7-19.4c8-16,30.8-16,38.8,0l168.6,337.2
		c3.7,7.3,11.2,12,19.4,12h0c16.1,0,26.6-17,19.4-31.4L649.9,92.3C641.9,76.3,619.1,76.3,611.1,92.3z"/>
	<path d="M405.2,310.2L405.2,310.2c4-8,12.2-13.1,21.2-13.1h19.5c8.8,0,16.9,4.9,21,12.7l0,0c8.3,15.8-3.2,34.7-21,34.7h-19.5
		C408.7,344.5,397.3,325.9,405.2,310.2z"/>
	<path d="M151.5,526.5l2.6-5.1c7.2-14.4-3.3-31.4-19.4-31.4h-26.8c-16.1,0-26.6-17-19.4-31.4l173.5-346.9c3.1-6.1,3.1-13.3,0-19.4v0
		c-8-16-30.8-16-38.8,0L15.7,507.1c-7.2,14.4,3.3,31.4,19.4,31.4h97C140.3,538.5,147.8,533.9,151.5,526.5z"/>
	<path d="M161.2,410.1l61.5-123c8.1-16.1,31.2-15.9,39,0.3l0,0c2.9,6,2.8,13.1-0.2,19.1l-61.5,123c-3.7,7.3-11.2,12-19.4,12h0
		C164.5,441.5,154,424.5,161.2,410.1z"/>
	<path d="M271.4,209.9L271.4,209.9c-3.2-6.2-3.3-13.5-0.2-19.7l0.4-0.8c8-16,30.8-16,38.8,0l0,0c3.1,6.1,3.1,13.3,0,19.4l-0.4,0.8
		C302.1,225.4,279.5,225.6,271.4,209.9z"/>
</g>
</svg>
